<svg width="270" height="74" viewBox="0 0 270 74" fill="none" xmlns="http://www.w3.org/2000/svg">
<path d="M71.2806 15.1122L59.5564 3.38781C57.3882 1.21985 54.4456 0 51.3816 0H5.2937C2.73838 0 0.668701 2.06969 0.668701 4.625V50.7133C0.668701 53.7773 1.88854 56.7199 4.0565 58.8877L15.7808 70.6123C17.9488 72.7801 20.8914 74 23.9555 74H70.0433C72.5986 74 74.6683 71.9302 74.6683 69.375V23.2869C74.6683 20.2228 73.4484 17.2801 71.2806 15.1122ZM60.3308 20.8761L35.9978 63.0154C35.3792 64.091 34.2345 64.75 32.9915 64.75H24.4295C23.5103 64.75 22.6258 64.3859 21.9783 63.7325L15.5554 57.3097C14.4454 56.1997 14.2199 54.4825 15.0061 53.1239L39.3393 10.9844C39.9579 9.90904 41.1027 9.25 42.3455 9.25H50.9077C51.8268 9.25 52.7114 9.61423 53.3589 10.2675L59.7818 16.6905C60.8918 17.8005 61.1171 19.5175 60.3308 20.8761Z" fill="#22201F"/>
<path d="M97.7937 11.5625H107.605V62.4316H97.7937V11.5625Z" fill="#22201F"/>
<path d="M132.676 32.5659C127.52 32.5659 123.883 36.1271 123.883 44.1226V62.4376H114.581V25.6689H123.01V31.0454C125.334 26.7557 129.404 24.5068 134.931 24.5068C143.58 24.5068 148.736 29.9586 148.736 39.1102V62.4376H139.435V40.8562C139.435 35.1848 137.18 32.5717 132.676 32.5717V32.5659Z" fill="#22201F"/>
<path d="M152.952 44.0474C152.952 31.9125 159.71 24.501 169.521 24.501C174.533 24.501 178.679 26.536 181.367 30.1665V11.5625H190.599V62.4316H182.17V56.98C179.482 61.1947 175.048 63.5938 169.527 63.5938C159.716 63.5938 152.958 56.1072 152.958 44.0474H152.952ZM181.586 44.0474C181.586 37 177.661 32.3461 171.92 32.3461C166.179 32.3461 162.474 36.9942 162.474 44.0474C162.474 51.1003 166.11 55.6735 171.92 55.6735C177.73 55.6735 181.586 51.0948 181.586 44.0474Z" fill="#22201F"/>
<path d="M195.467 44.0484C195.467 32.3471 202.733 24.502 214.359 24.502C226.934 24.502 233.761 33.6595 231.871 46.5226H204.763C205.272 52.6276 208.758 56.1137 214.354 56.1137C218.932 56.1137 221.696 53.7146 222.418 51.3156H231.646C230.194 58.4381 223.794 63.5947 214.348 63.5947C202.791 63.5947 195.455 55.8943 195.455 44.0484H195.467ZM222.864 40.1982C222.788 35.1857 219.592 31.769 214.146 31.769C209.278 31.769 205.861 34.677 204.988 40.1982H222.864Z" fill="#22201F"/>
<path d="M243.093 41.3591L232.485 25.6631H242.949L250.36 36.7111H250.649L257.991 25.6631H268.455L257.847 41.3591C256.829 42.8853 256.974 44.1922 257.847 45.4986L269.404 62.4317H258.5L250.649 50.6612H250.36L242.44 62.4317H231.612L243.093 45.4986C243.966 44.1922 244.111 42.9549 243.093 41.3591Z" fill="#22201F"/>
</svg>
